<?xml version="1.0" encoding="UTF-8"?>
<svg version="1.1" xmlns="http://www.w3.org/2000/svg" width="1440" height="780">
<path d="M0 0 C475.2 0 950.4 0 1440 0 C1440 243.21 1440 486.42 1440 737 C1243.0035117 779.98105199 1243.0035117 779.98105199 1155.91796875 780.203125 C1155.14218287 780.20595238 1154.36639698 780.20877975 1153.56710243 780.21169281 C1149.44601759 780.22653018 1145.32496623 780.23585168 1141.20385742 780.24023438 C1137.89352122 780.24457453 1134.58345221 780.25831423 1131.27319336 780.28125 C1099.42232201 780.49692228 1067.96398239 778.63462138 1036.4375 773.9375 C1035.42895966 773.79005341 1034.42041931 773.64260681 1033.38131714 773.49069214 C990.3234039 767.16456154 947.86253925 757.68730084 905.36455536 748.42594528 C904.58940834 748.25702396 903.81426132 748.08810265 903.015625 747.9140625 C902.24259285 747.74559437 901.4695607 747.57712624 900.67310333 747.40355301 C853.4394553 737.11346773 806.17893997 726.94934326 758.13421631 721.25714111 C756.12545453 721.01511539 754.11854948 720.75781907 752.11181641 720.49951172 C680.06620123 711.42459836 605.9607815 720.35985613 534.51171875 730.03125 C533.51714523 730.16578595 533.51714523 730.16578595 532.50247931 730.30303979 C520.84855726 731.88002702 509.19651897 733.47082639 497.54528809 735.06756592 C487.99358668 736.37652191 478.44115782 737.67991194 468.88671875 738.96875 C468.22440687 739.05810098 467.56209499 739.14745195 466.87971306 739.23951054 C431.38605531 744.02070998 395.78104241 748.1715318 360 750 C359.01386719 750.05639648 358.02773438 750.11279297 357.01171875 750.17089844 C237.17373169 756.94888365 117.77611058 736.84417769 0 718 C0 481.06 0 244.12 0 0 Z " fill="#F5EFFF" transform="translate(0,0)"/>
</svg>
